<svg width="194" height="169" viewBox="0 0 194 169" xmlns="http://www.w3.org/2000/svg" xmlns:xlink="http://www.w3.org/1999/xlink"><title>cristal</title><defs><path id="a" d="M115 27.512l79.674 46v92l-79.674 46-79.674-46v-92z"/><mask id="b" x="-4" y="-4" width="167.349" height="192"><path fill="#fff" d="M31.326 23.512h167.349v192H31.326z"/><use xlink:href="#a"/></mask><linearGradient x1="21.631%" y1="120.811%" x2="50%" y2="50%" id="c"><stop stop-color="#3976BB" offset="0%"/><stop stop-color="#1A3459" offset="100%"/></linearGradient><linearGradient x1="43.663%" y1="-3.518%" x2="67.411%" y2="92.265%" id="d"><stop stop-color="#0C2242" offset="0%"/><stop stop-color="#303F54" offset="100%"/></linearGradient><radialGradient cy="8.254%" fx="50%" fy="8.254%" r="105.879%" id="e"><stop stop-color="#D4DFEA" offset="0%"/><stop stop-color="#A3AFBB" offset="42.686%"/><stop stop-color="#636F7C" offset="100%"/></radialGradient><linearGradient x1="0%" y1="0%" x2="50%" y2="100%" id="f"><stop stop-color="#657C9F" offset="0%"/><stop stop-color="#354666" offset="100%"/></linearGradient><linearGradient x1="92.504%" y1="100%" x2="39.156%" y2="0%" id="g"><stop stop-color="#72ADDF" offset="0%"/><stop stop-color="#1351A3" offset="100%"/></linearGradient><linearGradient x1="-3.888%" y1="83.647%" x2="88.415%" y2="83.647%" id="h"><stop stop-color="#1B3459" offset="0%"/><stop stop-color="#2E5D96" offset="0%"/><stop stop-color="#2C3C52" offset="100%"/></linearGradient></defs><g fill="none" fill-rule="evenodd" opacity=".732"><g transform="rotate(30 171.31 68.423)"><use fill="#1E2129" xlink:href="#a"/><use stroke="#000" mask="url(#b)" stroke-width="8" xlink:href="#a"/></g><path fill="url(#c)" d="M70.664 198.98l45.573-80.967 45.134 81.01z" transform="translate(-18 -35)"/><path fill="url(#d)" transform="rotate(180 107.018 62.018)" d="M70.664 119.98l45.573-80.967 45.134 81.01z"/><path fill="url(#e)" transform="rotate(-120 130.664 86.781)" d="M104.414 138.681l44.573-79.235 46.134 79.278z"/><path fill="url(#f)" transform="scale(-1 1) rotate(60 39.31 -122.231)" d="M104.414 178.681l44.573-79.235 46.134 79.278z"/><path fill="url(#g)" transform="rotate(60 102.078 106.997)" d="M35.414 179.681l44.573-79.235 46.134 79.278z"/><path fill="url(#h)" transform="scale(1 -1) rotate(60 214.077 1.912)" d="M36.414 138.681l44.573-79.235 46.134 79.278z"/><path fill="#FFF" opacity=".305" d="M121.664 69l16.02-49.547-37.059 62.844h77.574z"/><path fill="#47A0FF" opacity=".305" d="M76.102 96.389l-20.498 53.913L91.56 86.82l-77.562 1.353z"/><path fill="#02070B" opacity=".247" d="M96.184 52.425L60.53 7.088l35.895 63.515 38.787-67.181z"/><path fill="#47A0FF" opacity=".305" d="M79.74 148.367l10.228-50.54-32.316 65.256 44.891-.222z"/><path fill="#000" opacity=".182" d="M66.458 65.479L51.003 16.284l38.96 61.521-44.668 4.472z"/><path fill="#242E3C" opacity=".279" d="M142.713 126.527L105.272 91.07l38.216 61.987 23.6-38.187z"/></g></svg>