<svg width="96" height="95" viewBox="0 0 96 95" xmlns="http://www.w3.org/2000/svg"><title>free</title><defs><radialGradient cx="66.253%" cy="36.998%" fx="66.253%" fy="36.998%" r="52.264%" id="a"><stop stop-color="#444" offset="0%"/><stop stop-color="#606568" offset="100%"/></radialGradient></defs><g fill="none" fill-rule="evenodd"><path d="M45.825 91.264c25.309 0 45.826-20.43 45.826-45.632C91.65 20.43 71.134 0 45.825 0 20.517 0 0 20.43 0 45.632c0 25.202 20.517 45.632 45.825 45.632z" stroke="#000" stroke-width="3" fill="url(#a)" transform="translate(2.099 2)"/><path d="M31.655 13.886A37.27 37.27 0 0 1 46.83 10.68c20.582 0 37.268 16.615 37.268 37.11 0 8.896-3.143 17.06-8.384 23.453-17.305-7.331-44.035-12.084-44.06-57.357z" fill="#131C26" opacity=".379"/><path d="M40.97 6.213a42.285 42.285 0 0 1 6.71-.533c23.092 0 41.81 18.64 41.81 41.634 0 10.874-4.186 20.775-11.043 28.19.49-1.71.938-3.482 1.342-5.32 11.492-52.329-19.296-7.84-30.148-52.329-1.33-5.454-4.367-9.258-8.671-11.642z" fill="#FFF" opacity=".252"/><path d="M72.315 29.406c-1.553-6.827-7.086-12.15-14.043-13.422.03.199.058.401.083.607 2.1 16.949 9.169 13.609 13.96 12.815z" fill="#FFF"/><path d="M13.95 32.968a36.481 36.481 0 0 0-4.851 18.23c0 20.308 16.532 36.77 36.924 36.77 10.5 0 19.976-4.364 26.7-11.37a40.378 40.378 0 0 1-19.189 4.816c-22.324 0-40.422-18.022-40.422-40.252 0-2.808.289-5.549.838-8.194z" fill="#FFF" opacity=".278"/></g></svg>